#define prev_width 42
#define prev_height 16
static unsigned char prev_bits[] = {
  0x00, 0x00, 0x00, 0x00, 0x00, 0x00, 0x00, 0x00, 0x00, 0x00, 0x00, 0x00,
  0x40, 0xf8, 0x01, 0x00, 0x08, 0x00, 0x60, 0x08, 0x03, 0x00, 0x08, 0x00,
  0x70, 0x08, 0x02, 0x00, 0x08, 0x00, 0x78, 0x08, 0xe2, 0xe1, 0x89, 0x00,
  0x7c, 0x08, 0x31, 0x33, 0x4b, 0x00, 0x7e, 0xf8, 0x00, 0x12, 0x28, 0x00,
  0x7e, 0x08, 0xe1, 0x13, 0x18, 0x00, 0x7c, 0x08, 0x32, 0x12, 0x28, 0x00,
  0x78, 0x08, 0x12, 0x12, 0x4a, 0x00, 0x70, 0x08, 0x33, 0x33, 0x8b, 0x00,
  0x60, 0xf8, 0xe1, 0xe6, 0x09, 0x01, 0x40, 0x00, 0x00, 0x00, 0x00, 0x00,
  0x00, 0x00, 0x00, 0x00, 0x00, 0x00, 0x00, 0x00, 0x00, 0x00, 0x00, 0x00,
  };
