/* XPM */
static char * epm_xpm[] = {
"128 128 17 1",
" 	c None",
".	c #0202BE",
"+	c #02BE02",
"@	c #47359B",
"#	c #BE2612",
"$	c #92918A",
"%	c #BE0202",
"&	c #FDC55C",
"*	c #D49B4B",
"=	c #E6A745",
"-	c #06B606",
";	c #C22A16",
">	c #F9B54A",
",	c #A67469",
"'	c #F1DE66",
")	c #0AAA06",
"!	c #767E78",
">=====>=====>======>>*====>>=========>====>=============>=====>='&&&&&'>&&&&&'&&&&&&&&&'>&&&&'>&&&&&&&&&&&'>&&&&&&&&&&&&'>&&&&&&",
"''&'&&'&&&&&'&&&'&&&'&&'&&&'&&'&&'&&'&&'&&'&&&'&&&'&''&&'&&&&&'=&>>>>>&>>&>>>&>>&>>>>>>>>&>>>>>>&>>>&&>&=>&>>>>&&>>>>>>>&>>&>>&*",
"&>>&=>&=>=>>&=>>>=>>&=>>>>>&=>>>>>>>>>=>>>>>>>>=>>&>>>>>&=>=>>>*&>>>>>&=>>>>>&=>>>>>>>>>>>>>>>>>>=>>>>>&=>&=>=>>>>>>>>>>&=>>>>>=",
"'>>&>>&>>>>>&>>>&>>&&=>&>>&&>>&>>>>>&>>&&=>&>>>>>>&>>&=>&>>>>>>*&>>=>>&=>&>>>>>>&>>>>>&>>>&>>>>>>=>>&>>&>>&>>>>>>>>>&=>>&=>>>>>=",
"&>>&&''&''&''&'&'&'&''&'''&'&'''&''&''&'''''&''&&&''''&''&'>>>>*&>>>'''&&'&'''&&''&'&''&'&'&''&''&&&''&'&'&&'&&''&&&'&'&'&>>>>>*",
"'>>>'>*=****=**==*===*=***==**=*=*=**=*==**=*=*=*==*==*=*=>*=>>*&>>>'>=*===*==**==*==*==*===*=*==*====*=*==*=*=*=====*===>*=>>&*",
"&>>>&=**=*===***=*===**=*===*==***=*==**==*=*==**==****=**&**>>*>>&='=***=**==*===*=**==**==*=**=***==*=**=*=*==***==*=*>>*=>=>=",
"'>>>&**>>>>>>>>>>=>>&=>>>>>>=>&>>>>>>>=>>&>>=>>=>>&>>>>>>>&*=>&*&>>>&===>>>>>>>>>>>>>>>&=>&&>>>>>=>>&>>>>>>>>=>>&=>>>=>&&&*=>>>*",
"&>>&&=*>>>>>>>>>&=>&&=>>>=&>=>>>>>>=>&>>>>=>=>>=>>>>>>>>>>'==>>*&>>>'===>>>>>&=>&>>>=>>>>>>>=>=>&=>>>>>>>>>>>>>>&=>>&=>>&&*=>>>=",
"'>>>&**>>=>>>>>>>>>>&=>>>>>&>>&>>>>>>>=>&>>>>>&=>>&>>>>>>>&**>>*&>&>&===>>>>>>=>>=>>&=>>=>&>>>=>>=>>&>>>>>>>>>>>>>>>>>>&&&=*>>&*",
"&&>>'=*>>>>&>=>>&=>&&>>>>>>>=>>>>>&=>&=>&>>>>>&>>>>>>>>>>>'*=>>*&>&>'===>>>>>&=>&>>>&=>&=>>>>>>>&=>>>>>>=>=>>>>>>>>>&=>&&&*=>=>=",
"&>&>&**>>>>>&>>>&=>>>=>>>>>>>>&>>>>>>>=>>>>>=>>=>>&>>>>>=>'**>&*&>>>'==>>>>>>>>>>>>>>>>>>>>>>>>>&=>>&>>>>>=>>=>>&=>>&=>&&&*=>>>*",
"'>>>&=*>>=>>&=>>&=>>>>>>>>>&=>>>>>&=>&=>>>>>=>>>=>&>>>=>>&'**>&*>&&=&=*>>>>>>&=>>>>>>>>>>>>>>>=>>=>>&>>>>>=&&>>>&=>>&=>>>&=*>>&*",
"&>>&&=*>&=>>&==>&=>&>>>>>>>>=>>>>>>>>>>>>>>>>>>>>>>>>>>>=>'**>>*&>&>'=*>>>>>>>>>>>>>&=>&=>>>>>>>&=>>>>>>>>=>>=>>&=>>&=>&&&*=>>>=",
"'>>&&=*>>>>>>>>>&=>&&>&&&>&&>&&&>&&>&&>&&&>&>>&=>>&>>>>>>>&=*>>*>>&>&=*>>>>>>&=>>>>>&=>>>>&>=>>>>>>>>>>>>>>>>>>>>>>>&=>&>'==>>>=",
"&=>>'=*>>>>&=>>&>>';###;#;;;;###;#;#####;###,>>>=>>=>>>&=&'==>>*&>>>'=*>>&>>>>>>&>=>>>>>=>>>>>>>>=>>&=>>>>=>>=&>=>>>>>>&>&*=>>>*",
"'=>>'=*>>=>&=>>>>>&;%%%%%%%%%%%%%%%%%%%%%%%%;=>>>>&=>>>&=>&*=>>*&&>>'=*>>>>>>&==>>>>>>>&=>>&>>>>>=>>>=>>>&>>>>>&=>>&>>>&>'*=>>>=",
"&>>>&=*>>>>>=>>&>>&;%%%%%%%%%%%%%%%%%%%%%%%%;>&=>&>>>>>>>>&**>=*&&>>'=*>>&>>>>>>>>>>&=>>=>&>>&&&'&&&&>>>>>==>=>>>>>>>>>&&&*=>>>*",
"'>>>'=*=>>>>>=>>>>&;%%%%%%%%%%%%%%%%%%%%%%%%;>>=>>&=>>>>=>'==>=*&>>>'=*>>>>>>&>>>>=>&=>&>&''>*$$,$$$$*==&&=>>>>>=>>&>>>&>&==>>>=",
"&>>>&=*>=>>&=>>&=>&;%%%%%%%%%%%%%%%%%%%%%%%%;>>>=>&>>>>&>>&**&>*&&=>'===>&>>>>>>>&>>>>&'&=$$$$!!!!$$$!,,!==>>>>&=>>>=>>&&&*=>>&=",
"'>>>&=*>>>>>=>>>=>&#%%%%%%%%%%%%%%%%%%%%%%%%;>>>>>&>>=>>>&'=*>=*&&=>'=*>>>>>>&>>>>>>&&'$!!!$$$$!$$!!!!!,,!$*==>>=>>&=>>&>&==>=>=",
"&>>>&=*>>=>>>=>&>>&;%%%%%%;,;,;,,;,,;,;,;,,,,>>==&>>>=>&=>&**>>*&>>>'=*=>&=>>&>>>&=''$$,!!$$$$,!!$)$!,@,$!!$$*=&==>>>>>&&'**>>&*",
"'=>>&=*>>>>>>>>>=>&#%%%%%%*>>>>&=>>>>>&>>>==>=&>>>&=>=>>>>'==>=*&&=>'==>>&=>>>>>>&'>$$!!!!,$$$$!!!!!!!,,$$$!$$*>>>>>=>>>>&==>=>=",
"&>>>'=*>>=&>>=>&>>&#%%%%%%,&>>>>>>&>>>&>>>>>>>>=>>&>>=>>>>&*=&=*&&>>'=*>>>=>&&>>&'$$$!!$!,!$$$!!$$$!,!!!!$$!!$!*=>>&=>>&>'*==>&=",
"&>>>&=*>>>>>>>>>=>&;%%%%%%*>>>&&=>>>>>&=&>=>>=>=>>=>>=>>>>&*=>>*&&=>'=*>>&>=>&=&'$,!!!$$!!!!$$$!!!!!,,!$!!$$!!!!*>>&>>&&>&===>>*",
"&>>>'=*>>>>&=>>&=>&;%%%%%%,&>>>&=>>>>&>>>>>>>>>=>>>>>>>>>>'==>=*&&>>'=*>>>=>>>&'$!,,!!$!$$$,$$$!!$!!!$,$$$!!!,!,,=>&=>>&&&*=>>>=",
"&>>=&=*>>=>&=>>&>>&;%%%%%%,&>=>&=>>>>>>>>>>>>>>=>>>>>=>>>>&*=&>*&&=>'=*>>&=>&&'=!,!!@!!!$!!!$$$$$$!,!$$!$!!!!!!!,,>&=>>&>'===>>=",
"&>>>&=*>>>>&=>>>>>&;%%%%%%,&>>>&>>>>>>&=>&=>>>&>>>>>>>>&=>'*=>=*&&>>'=*>>>=>>''$!$$!!,,!!!$$$$$$$$!$!!$!!!!,!!!!,,>&=>>&>&=*>>&*",
"&>>>'=*>>>>&>>>>>>&;%%%%%%;*,,,,,,,,,,,,,,,=>>>=>>>=>=>&>>&==&=*&>=&'=*>>&>>&'$$!$!!$,!!!!$$$$$!$$$$$!!!$$$$$$!$,!=&>>>&>&==>>>=",
"&>>>&**>=>&>=>=&=>&;%%%%%%%%%%%%%%%%%%%%%%%*=>&=>>&>>=>>>&&*=>>*&&>>'=*>>>==''$!$$!$!!$!,$$$!@@,!$$!!,$$$$$,$!!!,,*>=>&&&&*==>&=",
"'=>>'=*>>>>&=>>>>>&;%%%%%%%%%%%%%%%%%%%%%%%*=>&>>>&=>=>&=&&==>=*&>>>'=*>>&=>'$$!$!!$$!$!$$$@,>>>=*$$$$$$$$$!$$!!!@*&=>>&>&==>>>=",
"&>>>&=*>>=&>=>>&=>&;%%%%%%%%%%%%%%%%%%%%%%%*>>>=>>>>>=>&=&&**&=*&>>>'=*>>>>&'$!!$!$!!$!!!!!*=&>>>>>$$$$$$$$!!,!!,!*>=>>&>'===>&=",
"'=>>'=*>&=>&>=>>>>&#%%%%%%%%%%%%%%%%%%%%%%%*>=>=>>&=>=>&=>'==>>*&>>>'=*>>&=>'!!!!!!,!!!,!$@=>>>>>&=$$!,!!!!!,!!!!@=&=>>&>&*==>>=",
"&=>>'=*>&=>>>>>&=>&;%%%%%%%%%%%%%%%%%%%%%%%*>>>>>>&>>=>&>&'**&>*&>>>'=*>>>=&&!,!!$!$$$$$$$,>=>>>&'&$$$!$$,$!!!!!$@>>>>>&&&==>>>=",
"'=>=&=*>>>>&&=>>>>&#%%%%%%#;###;##;######;#*=>>>>>>>>=>>=>'**&>*&>>>'>*>>&=>>!!$!$$$$$$$$$$=>>>>'=$$$$!$$!$!$$!$!,>&>>>&>'*=>>>*",
"&>>&&=*>&=>>>>>>>>&;%%%%%%,>===>==>===>===*>>>>=>>&>>=>&>>'**>&*&&>>'=*>>&==&,$!$$$$$$$$,!$$=&&'$$$$$!!$!$$!$$!$@*>>>>>&>&===>>=",
"'>=>&=*=>>=&>>>>>=&#%%%%%%,&>>>>>>>=>>>=>&=>>>&=>>>=>=>>=>'**>>*>>>>'=*>>&>>&!$$!$$$$$$!!!$$$$!$$$$$$,!!,$!!$!$!!*>>>>>&>'===>>=",
"&>>>'=*>&=>>&=>>>>&;%%%%%%,&=>>>=>>>=>>>>>=>=>>>=>&>>=>>>>'**>&*&>>>'=*>>>>>>$,$!!$,!!!$$!$$$$$$$$$$!!!,,!!!$!$@*=>>>>>&>&*=>>>*",
"&>>>&=*>>>=>&=>>>>&;%%%%%%,&>>>&=>>>>>&=>&=>>>>=>>>=>>>&=>'*=>>*&>>>'=*>>&>=>*!!,!!!$$!$$!!,$$$$$$!!!$!!,@,,,!!!&=>>>=>&&&==>>>=",
"&=>&&=*>>=>>&>>>>>&;%%%%%%,&>>>>>>&=>>>>>>>>>=>=>>&>>>>>>>&**>&*&>>>'=*>>>>>>&,!!$!!!$$!,!!!!!!$$$!!$!!$!!!,,@,=>>>>>>>&>'*=>>>=",
"'>>>&===>=>>&=>>>>&;%%%%%%,&=>>>>>>>>>>>>&=>>>>>>>>>>>>&&>&*=>>*&>>>'===>&>>>&*!!,$$!!$$,,!!$!$!$$$!$!!$!!!,@,=>&>=>>>>&>&==>>>=",
"&>>>'==>>>>>&=>>>>&;%%%%%%,&=>>&=>>=>>&=&>=>=>>>=>&=>=>>&>'**>>*&>>>'==>>>>>>&=$!!!$$!!!,,!!$$!$$$$!!!!!!$!@!*>>&=>>>>>&&&=*>>>=",
"'>>>&===>=>>&=>>>=&#%%%%%%,&=>>>=>>>>>&=>&=>>>>=>>>>>>>>&=&*=>&*&>>>'===>&>>>&>=$$!!!$!!@!$!!!!!$$$,!$!!!!!,>=>>&=>>>>>&&&*=>>>*",
"&=>>'==>>>>>&=>>>>&;%%%%%%;,,,,,,,,,,,,,,,,,,*&==>&>=>>>&>'=*>>*&>>>'==>>>>>>&=>>$$$!,,,!!!$$$,,$$$$!!!!!@*=>>>>&=>>>>>&&&*=>>>=",
"'>>>&*==>>>>&=>>>=&#%%%%%%%%%%%%%%%%%%%%%%%%%;&>>>>>>>>>&>&*=>&*>>>>&===>>>>>&=>&=*!$!,,!!!!!!!!$$$!!!!@,=>>>>>>&>>>>=>>&'==>>>=",
"&>>>'==>>=>>>>>>>>&;%%%%%%%%%%%%%%%%%%%%%%%%%,&>>>&>>>=>&>&=*>>*&>>>'==>>>>>>&=>>>==!,@,!$$$!!,!!!!!@,,=>>&=>>>>>=>>&=>&&&**>>>=",
"'>>&&*==>>>>>>=>&=>#%%%%%%%%%%%%%%%%%%%%%%%%%;&>>>>>>>>>&>'**>>*>>&='===>&>>>&=>&>>>&*=,!!!!!@!@,!@**>>&>>>>>=>>&=>>>>>>&&==>>>=",
"&>=&&==>>=>>>>>>>=&;%%%%%%%%%%%%%%%%%%%%%%%%%,>=>>&>>>=>>>&**>>*&>>>'*==>>>>>>>>>>>>>>>>=*******=>>>>>>>=>&=>>>>>=>>>=>&&&**>>>*",
"&&>&&*==>>>>&>>>&>>;%%%%%%%%%%%%%%%%%%%%%%%%%,>>>=>>>>>>&>&=*>&*&>>>&==>>=>>>&=>>>>>>=>&>>>=>>>>>>>>&>>>>>&=>>=>&>>>&=>>&&==>>>=",
"&=>&&===>=>=>>>>>>&;;#;;;;#;##;#####;##;;;###,>>>>&==&=>&>'**>>*&>&>'===>>>>>>=>>>>>>>>>=>&>>&=>>>>>>=>>=>&=>=>>>>=>>=>&&&**>>>=",
"&>>&&==>>>>>>>=>>=>&>==>==>>==>======>==>=>=*=>>>=&>>>=>&=&*=>>=>>>>&===>>>>>&>>>>>>>>>&>>>=>&>>>>>>>>>>>>>=>>>>&>>>>>>>&&=*>>>*",
"&>>&&*==>=>>&=>>>>>>&=>>>>>>>>>>>>>>>>>>=>>>>>>>=>>>>&=>&>&**&>*&>>>'==>>>>>&>>>>>>>>>>>>>>>>>>>>>=>&>>>>>&=>=>>>=>>>>>&&&==>>&=",
"&&>&&===>=>>&=>>>>=>&>>>>>>&=>>>>>>>>>>>>>>>>=>=>>&>>&=>&>&=*>>*&>>>&*==>>>>>&=>>>>>>>>>=>>>>>=>>>>>>>>&=>&=>=>>&=>>>=>>&&**>>>*",
"'>>&&===>>>>>=>>>>>>>=>>>>&>=>>>>>>>>>>>&=>>>>>>=>>>>>>>&>'**>>*&>>>'===>>>>>>>>>=>>>>>>>>&=>>=>>==>&>>&=>&=>>>>>=>>>=>&&&*=>>>=",
"&>>&&=*>>>=>&=>>>=>>&=>>>>>&=>>>>>>>>>=>&=>>=>>>=>>>>&=>>='**>>*&>>>&===>>>>>&=>&>>>>>>>>>&>>&>>>>>>>>>&>>>=>>>>&=>>>=>>&&==>>>=",
"&>>>'=*>>=>>&=>>>>>>&=>>=>>&=>>>>>>>>&=>&>>>>>>=>>&>>>>>>>'**>>*&>>>'===>>>>>&=>>>>>>>>>=>>>>>=>>=>>>>>>=>>>>=>>>=>>&=>&&&**>>>*",
"'>>>&**>>>>>>=>>>>>>&=>>>>>>>>&>=>=>>&=>>&>&=>&=>>>>>>>>>>&=*>>*>>&='==>=>>=>&=>>>=>>>>&=>&>>&>>>=>>>>>>>>>>>>>>&=>>&=>>&&=*>>>=",
"&>>&&==>>=>>&>>>&=>&&>>>>>>&>>>>>>>>>&=>&&>>>>>>>>&>>>>>>>'*=>>*&>>>&==>>&>>>>>&&>>>>>>&>>>&>>=>&>>>&>>>>>>>>=>>>>>>>>>&&&**>>>*",
"'>>>&&&&'''''&'&'&&''&&''&''&'''&'&&''&&''&'&&'&&'''&'&''&'==>>*&&>>'&&&&''&''&&''&'&&''&'''&'&&'&&'''&'&'&&'''''&'''&''''*=>>>=",
"&>>>>*=*=**==*===*=>=*==**==*==*===*==*==**=*==*===*=*=**==,=>>*&>>>&*=**=*===*===*==*==**=**=*==*=*==*=*==*=*=*=**==*===**=>>>=",
"'>>>>=**=*==***==**==**==*==**=**==*==**=**=*==***==*=*=**=*>>&*&>&=>>=*==**==*==*===**=*==*=***=**====**=**=*===**==**==**>>>>*",
"&>>>>>=>>=>>&=>>&=>&>>>>>>>>>>&>>>&=>>>>&>>>>>>>>>&>>>>>=>>>>>>*&>&=>>&=>>>>>>=>&>>>>>>>=>>>>>>>>=>>>>>>>>>>>=>>&=>>>>>&>=>>>>>=",
"'>>>>>>>>=>>&>>>&>>>>=>>>>>>>>>>>>&=>>=>>>>>=>>=>>&>>>>>>>>>>>&*>>&=>&>>>>>>&>>=>>>>>>>&>>>>>>>>>>>>&>>>>=>>>>=>&=>>&=>&>>>>>>>=",
">*******=******************************************************$>*=*****************************************=**=****************",
"'>&&&&>&&&&&&&>&'>&'&&&&&&&&>&&&&&&&&&&&&&&&&&&>&&&&&&>&>&&>&&&=&&'>&'&>&&&&&&&&&&&&&>&&&&&&>&&&&&&&&&&&&&>&&&&&&&&&'>&&&&&&&&&>",
"&>>>>>>>>>>>>>>&>>>&>>>&>>&&>>>>>>&=&>>>&>>>>>&>>>&=>>&&>>&>>>>*&>>>>&>>>&>>>&>>>>>>&>>&=>&&>>&>>=>>&>>>>&>>>>>>=>>&>>>&>>>&>>&*",
"'=>>>&=>>>>&>>>>>>>&>>>>>>>>>>>>>>&=>>>>>&=>>>>=>>&>>>>>>=>>>&>*&&>>>&>>>>>>>>=>&>>>>=>&=>>>>>>>&=>>>=>>>>=>>>>&>>>>>>>&>>>>>=>=",
"&>>>>>>=>=>>=>>&>>>>>>>&>>>>=>>>>>>>>>=>>>>>>>&=>>&=>>>>>>=>>>=*&>>>>>>>>&>>>&>=>>>>>>>>=>>&=>>>>=>>&>>>>&=>=>>>=>>&>>&>>>>&>>>*",
"'=>>>&=>>>>>>>>>>>&&>>>>>>&&>>>>>>&=>&>>>&>>>>&=>>&>>>>&=>>>>>>*&&>>>&>>>&>>>&>>>>>&>>>&=>>&=>>>&>>>&=>>>&=>>>>>>>>>>>>&>>>&>>&=",
"&>>>''&''&''&&''&&'''&'''&'''&''&''&''&&''&&'&'&&''&'&''&'&>>&=*&>=>'''&&''&'''&''&''&''&&''&''&'&&'''&'&'&'&&''&&''&&''&&>>>>>*",
"'>>>&&*=*=*=**==*=*==*=*=*======*==*==*===**=*=**====*==*=>*=>>*&&=>'&=====*===*==*==*===*==**===*====*=*=*==*==*=*=*==>=>*=>>>=",
"&>>>&**=*=*=**==**===**=**==**==**=**=**==*=**=*===****=*=&**&=*&&=>'****=**===*==*==**=**==****=**=>****=*==**=*===***==>==>>&=",
"'>>>'=*>>>>&>>>&=>>&>>>&>>>&>>>&=>&>>>&=>&=>>>>>>>&=>>>>>>&=*>>*&&>>'=*>>>>>>&>>>&=>>>>>&=>&>>>>>>=>&>>>>>>>>>>>=>>&=>>&>'*===>=",
"&=>>&**>=>>>=>>>>>>&=>>>=>&>>>&>>>>>>>>>&>>>>>>=>&>>>=>&=>'*=>=*&&=>'=*>>&=>&>>>>&=>&>>>&>>>=>=>>=>>&=>=>>=>>>>&=>>&>>>&>&==>>&*",
"&>>>&=*>>>>>=>>&=>>&>>>>>=>&>=>&=>&>>>&=>>=>>>>=>>>>>>>>=>&*=>>*&&=>'=*>>>=>>&>>>&=>>>>>&=&&=&>=>>>>>>>>>>>>>>>>>>>>>>>&>'*==>>=",
"&>>>'=*>>=>&>>>&>>&>>=>>>>&>>>>>>>>>>>&=>&>>=>>=>>=>>=>&>>'=*&=*&&>>'=*>>>>>>>>>>&>>>>>>&=>>>>>>>=>>>>>=>&=>>>>>=>>&=>&&>&*==>&*",
"&>>>&=*>>>>>=>>>=>>&>>>&=>>&>>>&=>>>>>&=>>>>>>>=>&>>>=>>>>&*=>=*&>>>'=*>>&=>&&>>>>=>>>>>&=>>=>>>>=>>>=>>>>>>>>>&=>>&=>>&>&==>>>=",
"&>>>'=*>>>>&>>>&>>&&>>>>=>>&>>>&>>>>>>&>>&=>>>&=>>>>>=>&=&&==&>*&&>>'=*>>>=>>&>>>&>>>=>>&=>&>>>>>>>>&>>=>>=>>>>&>>>&>>&&&&*==>&*",
"&>>>&=*>>>>&=>>>=>>&>>>&=>>&>>>>>>>>>>>=>&=>>>>>>>>=>=>&=>'*=>=*&>>>'=*>>&=>>&>=>>>>>>>>&=>>=>>>>=>>>>>=>&=>>=>&=>>>=>>&>'==>>>=",
"'=>>'=*>>>>>>>>&=>&''$'''''''$'''''$'&&>>>=>>=&=>>&>>=>>>&&*=&>*&&=&'=*>>>>>&>>>$,,*,$,,*,=&=>>>&>=>&=>,,,,,,*,,,=>&=>>&>&*==>&=",
"&>>=&=*>>>>&==>>>>>'+++---+++++--++++++->&=>>>>=>>&=>=>&=>'*=>=*&>>>'=*>>>=>&&>*..........@&=>>=>>>>&=,..........*=>>>>&>&===>>=",
"&>>>'=*>>>>>>>>&==&'+++++++++++++++++++++-*>>>>=>>&>>=>&>>&*=>>*&>>>'=*>>&=>>&>*..........@>=&>>>=>>&&@..........,>>>>>&&&==>>&*",
"&>>='=*>&=>&=>>>>>>'+++++++++++++++++++++++*>>>>>>&=>>>>>>'*=>=*&>>>'==>>&=>>>>*...........>>>>>>>>>&>@..........*>>=>>&>'*==>>=",
"'=>>&=*>>>>>>=>&==>'+++++++++++++++++++++++)*>>=>>>>>=>&>&'**&&*&&=>'=*>>>>>&&>*...........*=>>>>=>>&=...........,>&>>>&&&*=>>>=",
"&>>>&=*>>>>&&=>&>>&'++++++++++++++++++++++++!=&>>>&=>>>>=>'**>>*&>>>'=*>>>=>>&>*...........,*>=>>>>>&*...........*>>>>>&>'==>>>=",
"'=>>&=*>&==>&=>>>>='++++++)))))))))++++++++++,>=>>&=>=>>>>'**>&*&&>>'=*>>&=>>>>*......@....@=>>>&=>>=,...........,>>>>>&>&*==>&*",
"&>>>'=*>>>>>&=>&>>>'++++++),*******,$-+++++++!&=>>&=>=>>>>'*=>>*>>>>'=*>>>>>>&>*......@.....>>=>>=>>&@....@......*>>>=>&>'===>>=",
"'=>>&=*>>=>>&=>>>=>'+++++-)*==>>=>>>>=+++++++)==>>>>>=>&=>'**>&*&>>>'=*>>>>>>&>*......,.....*>>>>=>>&.....,......,>>>>>&>&*=>>>=",
"&>>>'=*>>>=>&>>>>>>'++++++),>>>>=>&=>>'+++++-)*=>>>=>>>>>>'**>>*&>>>'=*>>&>=>&>*......@@....,=>>>>>>*....@,......*>>>>>&>&==>>>=",
"&=>>&=*>>=>>&=>>>>>'+++++-)*>>>>>>>>=>'++++++-,=>>&>>>>&>>&**>&*&>>>'=*>>>>>>&>*......@,....@&=>>==>,....@!......,>>>>>&>'*=>>>*",
"'>>>&===>=>>&=>>>>&'++++++),>>>&=>>>>>'+++++++,>=>>>>>=>&>&*=>&*&>>>'===>&>>>&=*......,$....@==>>>>&@....,,......*=>>>>&&&*=>>>=",
"&>>>'==>>=>>&=>>>=>'++++++)*=>>&=>>=>>'++++++-,>>>&>=>>&&>&**>>*&>>>'==>>>>>>&>*......@>.....=>=&=>>@....*!......,>>>>>&&&==>>>=",
"&>>>&===&=>>&=>>>>>'++++++)*=>>>>>&=>&'++++++),=>>>>>>=>&>'*=>&*&>>>'===>>>>>>>*......,>@....,=>>=>=....@=,......*>>>>>>&&*=>>&*",
"'>>>'==>>>>>&>>>>=>'+++++-)*=>>&=>>>='++++++-)*=>>>>>>>>>>'**>>*&>>>'==>>>>>>&=*......@&@....@>>&=>$....@=!......,>>>>>&&&*==>>=",
"&>>>&*==>>>>&=>>>>>'++++++),>>>>>>&>&'+++++++!>>>>&>>>>>&=&=*>&*>>>>&===>>>>>&>*......,>$....@>>&>>@....,>,......*=>>>>>&&==>>>=",
"'>>&&===>>>>>>>>&=='+++++++=>'''&'''++++++++),>>>>>>>>=>&>'=*>>*&>>>'==>>>>>>>>*......@>=.....=>>>&@....,=!......,>=&=>&&&*=>>>=",
"&>>&&*>=>=>>&=>>&=>'++++++++++-+++++++++++++),>=>>>>>&>>&=&*=>>*&>&>&==>>>>>>&=*......,>>.....,>&>>.....=>,......*>>>>>&&'=*>>>=",
"&>=&'==>>>>>&=>>>>='++++++++++++++++++++++)),>&>>>&=>>=>&>&**>>*>>&='*==>>>>>&>*......@&&@....,>>>*....@==!......,>>&=>>&&**>>>=",
"&&>>&*===>>=&>>>&=>'+++++++++++++++++++++++@*>&>>=&>>>=>&>'=*>>*&>>>'==>>>>>>>>*......@&>,....@>&>,....,=>,......*=>>>>>&&==>>>*",
"&=>&&===>=>>>>>>&=='+++++++++++++++++++++-!==>>=>>>=>>>>&=&**>&*&>>>&*==>>>>>>>*......@>=$.....=>>@....,==!......,>>>=>&&&*==>>=",
"&>>&&*=>>>=&>>=>>>>'++++++++++++++++++++)@=>=>&>>>&=>>=>&>&=*>>*&>>>'===>>>>>&>*......,&=>.....*&&.....==>,......,>>>>>>&&*=>>&*",
"'>>&&===>=>>&=>>>>='+++++++))))-----))!!*>>>>>>>>=>&>&=>&>&**>&*&>>>'==>>>>>&>>*......@>>>@....,>=....@>>=!......*>>>>=&&&==>>>=",
"&>>&&===>>>>>>>>>>>'++++++),,*,*,*,*,**==>>>>=>=>>>>>&=>&>&=*>>*&>>>&===>>>>>&=*......@&>>@....@&,....@>=>,......,>>>>>>&&**>>>=",
"&>>&&===>=>>>=>>>=='++++++)*>>>>>>>>>>>>&=>&=>>=>>&>>&=>&>'**>>*&>>>'*==>>=>>&>*......@>>&,....@&@....,&=>!......*>>>=>&&&*=>>>=",
"'>>&&=*>>>>>&=>>>>>'++++++),>>>>>>>>>>>>&>>>>>>=>>>>>&=>>='**>>*>>>>&===>&>>>>>*......,>=>*.....=@....*>=>,......,>>>>>>&&=*>>>*",
"&>>>'=*>>=>>>>>>>=='++++++)*=>&>>>>>>&=>>&=&=>>==>>>>>>>>>'**>>*&>>>'===>>>>&>>*......@&>>&.....$.....=>=>!......,>>>=>&&&**>>&=",
"'>>>&**>>>>>&=>>&>>'++++++),>>>>>>>>>&=>>&=&=>&=>>>>>>>>>>&=*>>*&>>>&===>>>=>>>*......@&=>&@....@....@>>>>,......*=>>=>>&&===>>=",
"&>>>'=*>>=>>>>>>>=='++++++)*=>>>>>=>>>>>>&>>>>>>>>&>>>>>>>'*=>>*&>&>'===>>>>>>>=......@&>>>!.........@>>==!......*>>&=>&&&*=>>>*",
"'>>>&**>>>>>>=>>&=&'++++++)*=>&>>>>=>>>>&>>>=>>>=>>>>>>>>>'==>&*&>>>'===>>>>&>=*......,>=>>,.........,>>>>,......,&>&=>&&&*=>>>=",
"&>>&&=*>>=>>&>>>&=='++++++),>>>>>>>>>>=>&=>>=>&=>>&>>=>>>>&**>>*&>>>&==>>>>>>&>=......@&=>&=.........=>>>=!......,>>>=>&&&**>=&*",
"'>>>&=*>&>>>>=>>&>>'++++++)*=>>>>>&>>&=>>>>>>>>=>>>>>>>>=>'==>>*&>&>'===>>>>>>=*......@&>>&>........@=>>>>,......*>>&=>&&&*=>>>*",
"&>>&&**>>=>>&>>>&=>'++++++),>>&>>>&=>>=>&=>>=>&>=>&&>=>>>>'**>>*&>&='===>>>>>&>=......@&=>>&@.......@>>>==,......,>>&>>>&&==>>&=",
"'>>>'=*>&>>>&=>>&=>'++++++)*=>>>>>>>>&=>&=>&=>>=>>>>>>>>=>'**&>*&>&>&=*>>>>>>>>*......,>>>>>,.......,>>>>>@......*=>>=>&>&**>>>*",
"&>>>&**>>=>>&>>>&=='++++-+)*>>>>>>&=>>=>>>>>>>&>>>&>>=>>>&'**>&*>>&>'=*>>>>>>>>*......@>=>&>*.......*=>>>>,......,>&&=>>&&==>>>=",
"'>>&&=*>>>>>>=>>&>>=!!!!!!!*=>>>>>>=>&=>&>>>>>>==>>>>>>>=>&*=>>*&>&=&=*=>>>>&>>>*****,=&>>>>=*,**,,*>=>>>>**,*,**=>>&=>&>&==>>>*",
"&=>>'=*>>>>>=>>&=>&&>>>>=>>>=>>>=>>>>>=>>>=>>>>>>>&=>>>>>>'==>=*&>>&'=*>>&>>>&==>==>&>>>=>&>>>>>&>>>&>>>>>>>>>>>=>>>>>>&&&*=>>>=",
"'>>>'=*>>>>&>>>&>>>&>>>&>>>&=>>>>>&=>&=>>&>>>>&=>>&>>>>&=>&**&>*&>>>'=*>>>>=>&>>>>>>>=>&=>>>>>=>>=>>>>>>>>>>>>>>>>>>>>>&>'==>>>*",
"&>>>&=*==>>>=>>>>>>&>>>>>>>>>>>>>>>>>>>>>&=>>>>=>>&=>>>>>>&**>=*&&>>'=*>>&>>>>=>>>>>>>>>=>>>>>>>&>>>&=>>>&=>>=>>=>>&>>>&>&*==>>=",
"&>>>'=*>>=>>>=>&>>>&>>>&>>>&=>>>>>>=>&=>>>=>>>>>=>&=>>>>>>'==>==&>>>'>*>>&>>>&>>>>>>&>>&=>>>>>>>>=>>&=>>>>=>>>>>>=>&>>>&>'==>>>=",
"'>>>&=*>>>>>>>>>=>>&>>>>>>>&>>>&>>>>>>=>>&=>=>&=>>&>>>>&=>&**&=*&&=>'=*>>>=>>&>>>&=>>=>>=>>>>=>>>=>>&>>>>&=>>>>>>>>>=>>&>&*=>>&*",
"&>>>&=*>>>>>=>>&=>>&>=>>>>>&>>>>=&>=&&=>>&=>>>>=>>&>>=>>>&'=*>=*&&=>'=*=>&>>>&>>>&=>&=>&=>>&=>>>&=>>&>>=>>>>>>>>=>>&=>>&>'*=>=>=",
"'>>>&==&&&&&>&&&&&&&&&&&&&&&&&&&&&&&&&&&&&&&&&&&&&&&&>&&&&&**>>*&>>>'>>&&&&&&&&&&'&&&&&&&&&&&&>&&&>&'&&>&&>&&&&&>&&&&&&&&'==>>&=",
"'>>>&&>&&&&'&&&'>&&'&&&'&&&'&&&'&&'&&&&&&'>&>&&&&&'&&>&&&&&*=>>*&&=>&&>&&&&&&'&&&&&&'&&&'&&'>&&&&&&&&&&&&'>&&&&'&>&'>&&'&&*==>>=",
"&>>>==,*,****,**,*******,***$***,**,***,**$**,**,****,**,***=&=*&&>>>*$****,**,***,**,***,*****,**,**,**,***,****,******,*,>=>&*",
"&>>>>&=>>==>=>>&=>=&==>>==>>>=>&=>>>=>&=>>=>>>>==>==>>>>=>==>>=*&&=>>&=>=>=>>&>=>&=>>>>=&=>>==>>>=>>=>==>>=>>==>=>>>==>&>>>&=>>=",
"&>>=>>>>>>>>=>>>>>>&>=>>>>>>>>>>=>>>>>&>>>=>=>>>>>>>>=>&>>>>>>>*&&=>&>>>>>=>>&>>>>>>>>>>&>>>=>=>>=>&>>>=>>=>>>>>=>>>=>&&>=>>=>>*",
"&>>=>>>>>>>&>>>&>>>&>>>&=>&&>>>&=>>>>>>>>&=&>=>=>>>>>>>>=>>>>&=*&&>>>&>>>&=>>&>>>&=>>>>>>=>&>>>>>=>>>>>>>&=>>>>&>>>&=>>&>>>&>>&=",
">********************************=*********************=********=***********************=**************************=************"};
